<?xml version="1.0" encoding="UTF-8" standalone="no"?>
<!-- Created with Inkscape (http://www.inkscape.org/) -->

<svg
   xmlns:dc="http://purl.org/dc/elements/1.1/"
   xmlns:cc="http://creativecommons.org/ns#"
   xmlns:rdf="http://www.w3.org/1999/02/22-rdf-syntax-ns#"
   xmlns:svg="http://www.w3.org/2000/svg"
   xmlns="http://www.w3.org/2000/svg"
   xmlns:sodipodi="http://sodipodi.sourceforge.net/DTD/sodipodi-0.dtd"
   xmlns:inkscape="http://www.inkscape.org/namespaces/inkscape"
   width="170mm"
   height="50mm"
   viewBox="0 0 170 50"
   version="1.1"
   id="svg8"
   inkscape:version="0.92.1 r15371"
   sodipodi:docname="email.svg">
  <defs
     id="defs2" />
  <sodipodi:namedview
     id="base"
     pagecolor="#ffffff"
     bordercolor="#666666"
     borderopacity="1.0"
     inkscape:pageopacity="0.0"
     inkscape:pageshadow="2"
     inkscape:zoom="1.4"
     inkscape:cx="465.64064"
     inkscape:cy="222.25098"
     inkscape:document-units="mm"
     inkscape:current-layer="text3682"
     showgrid="false"
     inkscape:window-width="1872"
     inkscape:window-height="1043"
     inkscape:window-x="48"
     inkscape:window-y="0"
     inkscape:window-maximized="1" />
  <metadata
     id="metadata5">
    <rdf:RDF>
      <cc:Work
         rdf:about="">
        <dc:format>image/svg+xml</dc:format>
        <dc:type
           rdf:resource="http://purl.org/dc/dcmitype/StillImage" />
        <dc:title></dc:title>
      </cc:Work>
    </rdf:RDF>
  </metadata>
  <g
     inkscape:label="Layer 1"
     inkscape:groupmode="layer"
     id="layer1"
     transform="translate(0,-247)">
    <g
       aria-label="quobre@gmail.com
12309@disroot.org"
       style="font-style:normal;font-variant:normal;font-weight:normal;font-stretch:normal;font-size:17.69888306px;line-height:1.25;font-family:'Nimbus Mono L';-inkscape-font-specification:'Nimbus Mono L';letter-spacing:0px;word-spacing:0px;fill:#000000;fill-opacity:1;stroke:none;stroke-width:0.4424721"
       id="text3682">
      <path
         d="m 13.97511,264.90032 q -3.345088,0 -3.345088,-4.23003 0,-1.98228 0.884944,-3.1504 0.884944,-1.16813 2.778724,-1.16813 1.061933,0 1.982275,0.83185 l 0.283182,-0.67256 h 0.938041 v 10.93791 q 0.442472,0.31858 1.238922,0.47787 l -0.0708,0.60176 h -3.911453 l 0.0708,-0.63716 q 0.707955,-0.12389 1.168126,-0.44247 v -3.71677 q -0.743353,1.16813 -2.017673,1.16813 z m -1.486706,-6.56629 q -0.176989,0.60177 -0.230085,1.09734 -0.0354,0.47787 -0.0354,1.25662 0,0.77875 0.0531,1.30971 0.0531,0.53097 0.230085,1.07964 0.336279,1.07963 1.469007,1.07963 1.150428,0 1.575201,-0.99114 0.442472,-0.99114 0.442472,-2.63713 v -2.53094 q -0.867245,-0.90265 -1.645996,-0.90265 -0.778751,0 -1.221223,0.31858 -0.442472,0.30088 -0.63716,0.92034 z"
         style="font-style:normal;font-variant:normal;font-weight:normal;font-stretch:normal;font-family:Caladea;-inkscape-font-specification:Caladea;stroke-width:0.4424721"
         id="path3690" />
      <path
         d="m 23.742682,264.90032 q -2.84952,0 -2.84952,-2.84952 v -3.45128 q 0,-0.65486 -0.265483,-0.88495 -0.265484,-0.24778 -0.95574,-0.28318 l 0.0354,-0.51327 q 0.601762,-0.10619 2.353951,-0.61946 l 0.353978,0.17699 v 5.76984 q 0,1.85838 1.522104,1.85838 0.460171,0 0.973438,-0.33628 0.513268,-0.35398 0.902643,-1.06193 v -4.10614 q 0,-0.65486 -0.283182,-0.88495 -0.265483,-0.24778 -0.95574,-0.28318 l 0.0531,-0.51327 q 0.601762,-0.10619 2.353952,-0.61946 l 0.336278,0.17699 v 7.20345 q 0.389376,0.33628 1.221223,0.47787 l -0.0531,0.61946 h -2.353952 l -0.176989,-1.11503 q -0.920342,1.23892 -2.21236,1.23892 z"
         style="font-style:normal;font-variant:normal;font-weight:normal;font-stretch:normal;font-family:Caladea;-inkscape-font-specification:Caladea;stroke-width:0.4424721"
         id="path3692" />
      <path
         d="m 32.056454,257.98006 q -0.495568,0.79645 -0.495568,2.63713 0,1.84068 0.495568,2.65483 0.513268,0.81415 1.663695,0.81415 1.150428,0 1.663695,-0.81415 0.530967,-0.81415 0.530967,-2.65483 0,-1.84068 -0.513268,-2.63713 -0.513267,-0.81415 -1.681394,-0.81415 -1.150427,0 -1.663695,0.81415 z m -1.150427,5.82293 q -0.938041,-1.09733 -0.938041,-3.1858 0,-2.08847 0.938041,-3.1681 0.95574,-1.09733 2.814122,-1.09733 1.858383,0 2.796424,1.09733 0.95574,1.07963 0.95574,3.1681 0,2.08847 -0.95574,3.1858 -0.938041,1.09733 -2.796424,1.09733 -1.858382,0 -2.814122,-1.09733 z"
         style="font-style:normal;font-variant:normal;font-weight:normal;font-stretch:normal;font-family:Caladea;-inkscape-font-specification:Caladea;stroke-width:0.4424721"
         id="path3694" />
      <path
         d="m 43.706745,256.35176 q 1.805286,0 2.637134,1.13273 0.831847,1.13273 0.831847,3.0796 0,1.94688 -0.991137,3.15041 -0.991138,1.18582 -2.831822,1.18582 -1.115029,0 -2.05307,-0.86724 -0.265483,0.40707 -0.353978,0.74335 h -0.849546 v -10.03527 q 0,-0.65486 -0.265483,-0.88494 -0.265484,-0.24779 -0.973439,-0.28318 l 0.0531,-0.53097 q 0.63716,-0.10619 2.353951,-0.60176 l 0.353978,0.17699 v 4.97338 q 0.265483,-0.51327 0.849546,-0.86724 0.601762,-0.37168 1.238922,-0.37168 z m 1.504405,6.61938 q 0.212387,-0.56636 0.283182,-1.11503 0.0708,-0.54866 0.0708,-1.22122 0,-0.67256 -0.0354,-1.11503 -0.0177,-0.44247 -0.123892,-0.92034 -0.106193,-0.49557 -0.300881,-0.79645 -0.442472,-0.69026 -1.256621,-0.69026 -0.79645,0 -1.238922,0.33628 -0.442472,0.33628 -0.637159,0.97344 -0.353978,1.07963 -0.353978,2.72563 v 2.12386 q 1.008836,0.88495 1.752189,0.88495 0.743353,0 1.185825,-0.30088 0.460171,-0.31858 0.654859,-0.88495 z"
         style="font-style:normal;font-variant:normal;font-weight:normal;font-stretch:normal;font-family:Caladea;-inkscape-font-specification:Caladea;stroke-width:0.4424721"
         id="path3696" />
      <path
         d="m 53.757497,256.35176 q 0.63716,0 1.097331,0.37168 0.477869,0.37167 0.477869,0.93804 0,0.56636 -0.265483,0.90264 -0.247784,0.33628 -0.619461,0.33628 -0.353977,0 -0.619461,-0.14159 -0.265483,-0.15929 -0.336278,-0.40708 0.176988,-0.17699 0.176988,-0.49557 0,-0.53096 -0.495568,-0.53096 -0.495569,0 -1.008837,0.72565 -0.495568,0.70796 -0.495568,1.52211 v 4.10614 q 0.47787,0.31858 1.398211,0.49557 l -0.07079,0.60176 h -4.070743 l 0.07079,-0.63716 q 0.725655,-0.12389 1.168127,-0.46017 v -5.04418 q 0,-0.65486 -0.283183,-0.88495 -0.265483,-0.24778 -0.955739,-0.28318 l 0.0531,-0.51327 q 0.230086,-0.0354 2.159264,-0.60176 l 0.31858,0.15929 0.176989,1.23892 q 0.938041,-1.39821 2.123866,-1.39821 z"
         style="font-style:normal;font-variant:normal;font-weight:normal;font-stretch:normal;font-family:Caladea;-inkscape-font-specification:Caladea;stroke-width:0.4424721"
         id="path3698" />
      <path
         d="m 57.853686,260.4756 v 0.0885 q 0,2.15927 0.548666,2.83183 0.513267,0.63716 1.628297,0.63716 0.584063,0 1.150427,-0.21239 0.566364,-0.21239 0.849547,-0.42477 l 0.265483,-0.19469 0.442472,0.53096 q -0.123892,0.1239 -0.353978,0.31858 -0.230085,0.19469 -0.955739,0.53097 -0.725655,0.31858 -1.469008,0.31858 -2.017672,0 -2.884918,-1.07963 -0.849546,-1.09733 -0.849546,-3.1504 0,-2.07077 0.938041,-3.1858 0.955739,-1.13273 2.725628,-1.13273 1.787587,0 2.495542,0.92034 0.707956,0.92034 0.761052,2.72563 l -0.371676,0.47787 z m 1.999974,-3.41588 q -1.946877,0 -1.999974,2.76102 l 3.699067,-0.12389 q 0,-1.39821 -0.371677,-2.01767 -0.353977,-0.61946 -1.327416,-0.61946 z"
         style="font-style:normal;font-variant:normal;font-weight:normal;font-stretch:normal;font-family:Caladea;-inkscape-font-specification:Caladea;stroke-width:0.4424721"
         id="path3700" />
      <path
         d="m 68.708075,262.31628 q 0,-2.15926 2.902617,-2.40704 l 1.238922,-0.1062 v -1.20352 q 0,-0.83185 -0.31858,-1.20353 -0.300881,-0.38937 -0.938041,-0.38937 -0.619461,0 -0.955739,0.21239 -0.336279,0.21238 -0.336279,0.58406 0,0.37167 0.513267,0.54866 0,0.86725 -0.991137,0.86725 -0.442472,0 -0.707955,-0.28318 -0.265484,-0.28319 -0.265484,-0.70796 0,-0.86724 0.743354,-1.36281 0.743353,-0.51327 1.999973,-0.51327 1.27432,0 1.999974,0.60176 0.743353,0.58407 0.743353,1.646 v 3.71676 q 0,1.13273 1.132729,1.13273 0.743353,0 1.168126,-1.15043 0.424773,-1.15042 0.424773,-2.79642 0,-2.35395 -1.327416,-3.85836 -1.309717,-1.5221 -3.876055,-1.5221 -2.54864,0 -4.070744,1.78759 -1.504405,1.78758 -1.504405,4.42472 0,2.61943 1.451309,4.38932 1.469007,1.76989 3.876055,1.76989 1.699093,0 2.814123,-0.67256 l 0.389375,0.61946 q -1.345115,0.84955 -3.203498,0.84955 -3.1681,0 -5.044181,-1.89378 -1.858383,-1.87608 -1.858383,-4.95569 0,-3.0796 1.929178,-5.07958 1.946877,-1.99997 5.132676,-1.99997 3.203498,0 5.026483,1.73449 1.840684,1.71679 1.840684,4.40702 0,2.10617 -0.849547,3.45128 -0.849546,1.32742 -2.424747,1.32742 -1.929178,0 -2.353951,-0.93804 -1.008836,0.86724 -2.123866,0.86724 -2.176963,0 -2.176963,-1.89378 z m 1.469008,-0.14159 q 0,1.27432 0.991137,1.27432 0.778751,0 1.681394,-0.90264 v -1.98228 l -1.168126,0.0885 q -0.690257,0.0531 -1.097331,0.47787 -0.407074,0.42477 -0.407074,1.04423 z"
         style="font-style:normal;font-variant:normal;font-weight:normal;font-stretch:normal;font-family:Caladea;-inkscape-font-specification:Caladea;stroke-width:0.4424721"
         id="path3702" />
      <path
         d="m 83.730278,256.36946 q 1.221223,0 1.982275,0.42477 0.63716,-0.19469 0.63716,-0.63716 0,-0.46017 -0.495569,-0.69025 0,-0.26549 0.212387,-0.42478 0.230085,-0.17699 0.619461,-0.17699 0.389375,0 0.63716,0.24779 0.247784,0.24778 0.247784,0.63716 0,1.11503 -1.238922,1.5398 0.654859,0.72565 0.654859,2.03537 0,1.30972 -0.884944,2.08847 -0.867246,0.76105 -2.371651,0.76105 h -0.247784 l -0.743353,0.92034 q 0.0354,0.26549 0.265483,0.37168 0.247785,0.10619 0.867245,0.12389 h 0.743354 q 1.628297,0 2.389349,0.74336 0.778751,0.72565 0.778751,1.85838 0,2.46014 -3.752164,2.46014 -1.876081,0 -2.831821,-0.60176 -0.938041,-0.60176 -0.938041,-1.5575 0,-0.95574 0.300881,-1.38051 0.300881,-0.40708 1.061933,-0.83185 -0.389375,-0.44247 -0.389375,-1.18583 l 1.451308,-1.02653 q -1.044234,-0.24779 -1.628297,-0.95574 -0.566364,-0.72565 -0.566364,-1.78759 0,-2.95571 3.238895,-2.95571 z m -1.25662,4.56631 q 0.389375,0.51327 1.25662,0.51327 0.867246,0 1.256621,-0.51327 0.389376,-0.51327 0.389376,-1.66369 0,-1.15043 -0.389376,-1.6637 -0.389375,-0.53097 -1.256621,-0.53097 -0.867245,0 -1.25662,0.53097 -0.389376,0.51327 -0.389376,1.6637 0,1.15042 0.389376,1.66369 z m 1.716791,3.85836 h -1.504405 q -0.796449,0.51326 -0.796449,1.39821 0,1.73449 2.123866,1.73449 2.141564,0 2.141564,-1.73449 0,-1.39821 -1.964576,-1.39821 z"
         style="font-style:normal;font-variant:normal;font-weight:normal;font-stretch:normal;font-family:Caladea;-inkscape-font-specification:Caladea;stroke-width:0.4424721"
         id="path3704" />
      <path
         d="m 90.228263,258.63492 q 0,-0.65486 -0.265483,-0.88495 -0.265483,-0.24778 -0.973439,-0.28318 l 0.0531,-0.51327 q 0.283182,-0.0531 2.176962,-0.60176 l 0.31858,0.15929 0.123893,0.92034 q 0.93804,-1.07963 2.159263,-1.07963 1.628298,0 2.336253,1.09733 1.203524,-1.09733 2.37165,-1.09733 1.185825,0 1.946881,0.65486 0.77875,0.63716 0.77875,1.99997 v 4.67251 q 0.42477,0.31858 1.23892,0.49557 l -0.0708,0.60176 h -3.876052 l 0.0354,-0.60176 q 0.672557,-0.1062 1.168126,-0.49557 v -4.7256 q 0,-1.75219 -1.398212,-1.75219 -0.566364,0 -1.061933,0.35397 -0.495568,0.35398 -0.743353,0.83185 v 5.29197 q 0.389376,0.31858 1.238922,0.49557 l -0.0708,0.60176 h -3.893755 l 0.0531,-0.60176 q 0.672557,-0.1062 1.168126,-0.49557 v -4.7256 q 0,-1.75219 -1.398212,-1.75219 -0.61946,0 -1.168126,0.44247 -0.548665,0.42477 -0.725654,0.93804 v 5.09728 q 0.407074,0.31858 1.221223,0.49557 l -0.0708,0.60176 h -3.911453 l 0.0708,-0.63716 q 0.743353,-0.12389 1.168126,-0.46017 z"
         style="font-style:normal;font-variant:normal;font-weight:normal;font-stretch:normal;font-family:Caladea;-inkscape-font-specification:Caladea;stroke-width:0.4424721"
         id="path3706" />
      <path
         d="m 106.01622,264.90032 q -1.09733,0 -1.6991,-0.53097 -0.60176,-0.53096 -0.60176,-1.5752 0,-1.06193 0.84955,-1.71679 0.84954,-0.67256 2.46014,-0.77875 l 1.45131,-0.10619 v -1.43361 q 0,-0.88495 -0.37167,-1.29202 -0.37168,-0.40707 -1.20353,-0.40707 -1.46901,0 -1.46901,0.79644 0,0.46018 0.53097,0.65486 0,0.84955 -1.00884,0.84955 -0.46017,0 -0.74335,-0.28318 -0.28318,-0.28318 -0.28318,-0.74336 0,-0.90264 0.79645,-1.4336 0.81415,-0.54867 2.21236,-0.54867 1.41591,0 2.23006,0.63716 0.81415,0.63716 0.81415,1.76989 v 4.93799 q 0.40707,0.30088 1.23892,0.47787 l -0.0708,0.60176 h -2.44244 l -0.17699,-0.79645 q -0.99114,0.92034 -2.51324,0.92034 z m -0.74336,-2.17696 q 0,1.45131 1.18583,1.45131 0.93804,0 2.01767,-1.02654 v -2.23006 l -1.41591,0.12389 q -0.83185,0.0708 -1.30972,0.53097 -0.47787,0.44247 -0.47787,1.15043 z"
         style="font-style:normal;font-variant:normal;font-weight:normal;font-stretch:normal;font-family:Caladea;-inkscape-font-specification:Caladea;stroke-width:0.4424721"
         id="path3708" />
      <path
         d="m 113.41933,258.59952 q 0,-0.65486 -0.28318,-0.88495 -0.26548,-0.24778 -0.95574,-0.28318 l 0.0531,-0.51327 q 0.67255,-0.12389 2.33625,-0.61946 l 0.35398,0.19469 v 7.20345 q 0.44247,0.31858 1.23892,0.47787 l -0.0708,0.60176 h -3.91145 l 0.0708,-0.63716 q 0.72565,-0.12389 1.16812,-0.44247 z m 0.65486,-5.43356 q 0.93804,0 0.93804,1.02654 0,1.02653 -0.93804,1.02653 -0.92034,0 -0.92034,-1.02653 0,-1.02654 0.92034,-1.02654 z"
         style="font-style:normal;font-variant:normal;font-weight:normal;font-stretch:normal;font-family:Caladea;-inkscape-font-specification:Caladea;stroke-width:0.4424721"
         id="path3710" />
      <path
         d="m 118.13331,254.74116 q 0,-0.65486 -0.26548,-0.88494 -0.26548,-0.24779 -0.97344,-0.28318 l 0.0531,-0.53097 q 0.63716,-0.10619 2.35395,-0.60176 l 0.33628,0.17699 v 11.0618 q 0.44247,0.33628 1.23892,0.47787 l -0.0708,0.61946 h -3.91145 l 0.0708,-0.65486 q 0.74335,-0.10619 1.16812,-0.44247 z"
         style="font-style:normal;font-variant:normal;font-weight:normal;font-stretch:normal;font-family:Caladea;-inkscape-font-specification:Caladea;stroke-width:0.4424721"
         id="path3712" />
      <path
         d="m 122.15953,263.87379 q 0,-1.02654 0.93804,-1.02654 0.93804,0 0.93804,1.02654 0,1.02653 -0.93804,1.02653 -0.93804,0 -0.93804,-1.02653 z"
         style="font-style:normal;font-variant:normal;font-weight:normal;font-stretch:normal;font-family:Caladea;-inkscape-font-specification:Caladea;stroke-width:0.4424721"
         id="path3714" />
      <path
         d="m 129.47055,256.35176 q 1.22123,0 1.96458,0.53097 0.76105,0.51326 0.76105,1.34511 0,0.40708 -0.28318,0.72566 -0.26548,0.31858 -0.63716,0.31858 -0.35398,0 -0.60176,-0.17699 -0.24779,-0.17699 -0.33628,-0.46017 0.23008,-0.37168 0.23008,-0.72566 0,-0.37167 -0.30088,-0.63716 -0.30088,-0.28318 -0.88494,-0.28318 -0.56637,0 -1.02654,0.28318 -0.44247,0.28318 -0.67255,0.81415 -0.37168,0.92034 -0.37168,2.12387 0,1.20352 0.0708,1.75219 0.0708,0.54866 0.28319,1.06193 0.42477,1.00884 1.82298,1.00884 0.58406,0 1.15043,-0.21239 0.56636,-0.21239 0.83185,-0.42477 l 0.26548,-0.19469 0.46017,0.53096 q -0.12389,0.1239 -0.35398,0.31858 -0.23008,0.19469 -0.97344,0.53097 -0.72565,0.31858 -1.469,0.31858 -1.99998,0 -2.86722,-1.07963 -0.86725,-1.09733 -0.86725,-3.2566 0.0531,-4.21233 3.80526,-4.21233 z"
         style="font-style:normal;font-variant:normal;font-weight:normal;font-stretch:normal;font-family:Caladea;-inkscape-font-specification:Caladea;stroke-width:0.4424721"
         id="path3716" />
      <path
         d="m 135.76085,257.98006 q -0.49557,0.79645 -0.49557,2.63713 0,1.84068 0.49557,2.65483 0.51327,0.81415 1.66369,0.81415 1.15043,0 1.6637,-0.81415 0.53097,-0.81415 0.53097,-2.65483 0,-1.84068 -0.51327,-2.63713 -0.51327,-0.81415 -1.6814,-0.81415 -1.15042,0 -1.66369,0.81415 z m -1.15043,5.82293 q -0.93804,-1.09733 -0.93804,-3.1858 0,-2.08847 0.93804,-3.1681 0.95574,-1.09733 2.81412,-1.09733 1.85839,0 2.79643,1.09733 0.95574,1.07963 0.95574,3.1681 0,2.08847 -0.95574,3.1858 -0.93804,1.09733 -2.79643,1.09733 -1.85838,0 -2.81412,-1.09733 z"
         style="font-style:normal;font-variant:normal;font-weight:normal;font-stretch:normal;font-family:Caladea;-inkscape-font-specification:Caladea;stroke-width:0.4424721"
         id="path3718" />
      <path
         d="m 144.15455,258.63492 q 0,-0.65486 -0.26549,-0.88495 -0.26548,-0.24778 -0.97343,-0.28318 l 0.0531,-0.51327 q 0.28318,-0.0531 2.17697,-0.60176 l 0.31858,0.15929 0.12389,0.92034 q 0.93804,-1.07963 2.15926,-1.07963 1.6283,0 2.33625,1.09733 1.20353,-1.09733 2.37165,-1.09733 1.18583,0 1.94688,0.65486 0.77875,0.63716 0.77875,1.99997 v 4.67251 q 0.42478,0.31858 1.23892,0.49557 l -0.0708,0.60176 h -3.87606 l 0.0354,-0.60176 q 0.67256,-0.1062 1.16813,-0.49557 v -4.7256 q 0,-1.75219 -1.39821,-1.75219 -0.56637,0 -1.06194,0.35397 -0.49557,0.35398 -0.74335,0.83185 v 5.29197 q 0.38937,0.31858 1.23892,0.49557 l -0.0708,0.60176 h -3.89376 l 0.0531,-0.60176 q 0.67256,-0.1062 1.16812,-0.49557 v -4.7256 q 0,-1.75219 -1.39821,-1.75219 -0.61946,0 -1.16812,0.44247 -0.54867,0.42477 -0.72566,0.93804 v 5.09728 q 0.40708,0.31858 1.22122,0.49557 l -0.0708,0.60176 h -3.91145 l 0.0708,-0.63716 q 0.74335,-0.12389 1.16813,-0.46017 z"
         style="font-style:normal;font-variant:normal;font-weight:normal;font-stretch:normal;font-family:Caladea;-inkscape-font-specification:Caladea;stroke-width:0.4424721"
         id="path3720" />
      <path
         d="m 14.329088,277.27588 h -2.37165 v -0.76105 q 1.787587,-0.15929 3.345089,-0.99114 l 0.584063,0.26548 v 10.47774 q 0.584063,0.31858 2.21236,0.53097 l -0.0531,0.60176 h -6.159212 l 0.0354,-0.60176 q 1.575201,-0.17699 2.407048,-0.53097 z"
         style="font-style:normal;font-variant:normal;font-weight:normal;font-stretch:normal;font-family:Caladea;-inkscape-font-specification:Caladea;stroke-width:0.4424721"
         id="path3722" />
      <path
         d="m 27.987095,286.08992 v 1.30972 h -7.345036 v -1.02653 q 2.973412,-2.81413 4.106141,-4.51322 1.132728,-1.69909 1.132728,-3.23889 0,-2.21236 -1.822985,-2.21236 -0.831847,0 -1.309717,0.40707 -0.47787,0.40707 -0.47787,1.04423 0,0.61946 0.371676,1.09733 -0.389375,0.38938 -0.884944,0.38938 -0.47787,0 -0.814148,-0.33628 -0.31858,-0.33628 -0.31858,-1.00884 0,-1.22122 0.973438,-1.84068 0.991138,-0.63716 2.566338,-0.63716 1.575201,0 2.460145,0.84955 0.902643,0.84954 0.902643,2.40705 0,1.5575 -1.150427,3.27429 -1.150428,1.69909 -3.876056,4.03534 z"
         style="font-style:normal;font-variant:normal;font-weight:normal;font-stretch:normal;font-family:Caladea;-inkscape-font-specification:Caladea;stroke-width:0.4424721"
         id="path3724" />
      <path
         d="m 32.990348,281.59441 v -0.77875 q 2.814123,-0.0885 2.814123,-2.40705 0,-0.97344 -0.442472,-1.48671 -0.424773,-0.51326 -1.221223,-0.51326 -0.778751,0 -1.256621,0.40707 -0.460171,0.40707 -0.460171,0.95574 0,0.54866 0.194688,0.79645 -0.424773,0.31858 -0.867245,0.31858 -0.424774,0 -0.654859,-0.30088 -0.212387,-0.31858 -0.212387,-0.84955 0,-0.93804 0.938041,-1.5752 0.95574,-0.63716 2.37165,-0.63716 1.43361,0 2.336253,0.79645 0.902643,0.79645 0.902643,2.08847 0,2.03537 -2.318554,2.77872 2.460145,0.65486 2.460145,3.00881 0,1.46901 -1.008836,2.40705 -0.991138,0.92034 -2.619435,0.92034 -1.610598,0 -2.566338,-0.63716 -0.938041,-0.65485 -0.938041,-1.78758 0,-0.44248 0.283182,-0.70796 0.283182,-0.28318 0.725655,-0.28318 0.442472,0 0.849546,0.30088 -0.141591,0.38938 -0.141591,0.74335 0,0.69026 0.513267,1.09733 0.530967,0.40708 1.415911,0.40708 0.902643,0 1.415911,-0.65486 0.513267,-0.67256 0.513267,-1.85838 0,-1.18583 -0.796449,-1.85839 -0.79645,-0.69025 -2.23006,-0.69025 z"
         style="font-style:normal;font-variant:normal;font-weight:normal;font-stretch:normal;font-family:Caladea;-inkscape-font-specification:Caladea;stroke-width:0.4424721"
         id="path3726" />
      <path
         d="m 41.497981,281.52361 q 0,2.77873 0.566365,3.96455 0.566364,1.16813 1.911479,1.16813 1.362814,0 1.929178,-1.16813 0.584063,-1.18582 0.584063,-3.94685 0,-2.77872 -0.584063,-3.94685 -0.566364,-1.18582 -1.911479,-1.18582 -1.345115,0 -1.929178,1.16812 -0.566365,1.16813 -0.566365,3.94685 z m 5.539751,4.46012 q -1.044234,1.5398 -3.044208,1.5398 -1.999974,0 -3.061907,-1.5575 -1.061933,-1.5575 -1.061933,-4.44242 0,-2.90261 1.061933,-4.44242 1.061933,-1.5575 3.061907,-1.5575 1.999974,0 3.044208,1.5398 1.061933,1.53981 1.061933,4.46012 0,2.90262 -1.061933,4.46012 z"
         style="font-style:normal;font-variant:normal;font-weight:normal;font-stretch:normal;font-family:Caladea;-inkscape-font-specification:Caladea;stroke-width:0.4424721"
         id="path3728" />
      <path
         d="m 55.740051,281.85989 q -1.132729,0.72566 -2.54864,0.72566 -1.41591,0 -2.389349,-0.95574 -0.955739,-0.97344 -0.955739,-2.56634 0,-1.5929 1.044234,-2.56634 1.044234,-0.97344 2.814122,-0.97344 3.752163,0 3.752163,4.7256 0,2.99111 -1.469007,4.8495 -1.469007,1.85838 -4.336226,2.51324 l -0.300881,-0.76105 q 1.964576,-0.51327 3.026509,-1.7168 1.079632,-1.22122 1.362814,-3.27429 z m -4.265431,-2.81412 q 0,1.22122 0.548665,1.89378 0.566364,0.65486 1.610599,0.65486 1.061933,0 2.194661,-0.86725 0.0177,-0.15929 0.0177,-0.46017 0,-3.85835 -2.159264,-3.85835 -1.044234,0 -1.628297,0.70795 -0.584063,0.70796 -0.584063,1.92918 z"
         style="font-style:normal;font-variant:normal;font-weight:normal;font-stretch:normal;font-family:Caladea;-inkscape-font-specification:Caladea;stroke-width:0.4424721"
         id="path3730" />
      <path
         d="m 63.557425,284.9395 q 0,-2.15927 2.902617,-2.40705 l 1.238922,-0.10619 v -1.20353 q 0,-0.83185 -0.31858,-1.20352 -0.300881,-0.38938 -0.938041,-0.38938 -0.619461,0 -0.955739,0.21239 -0.336279,0.21239 -0.336279,0.58406 0,0.37168 0.513267,0.54867 0,0.86724 -0.991137,0.86724 -0.442472,0 -0.707955,-0.28318 -0.265484,-0.28318 -0.265484,-0.70796 0,-0.86724 0.743354,-1.36281 0.743353,-0.51327 1.999973,-0.51327 1.27432,0 1.999974,0.60177 0.743353,0.58406 0.743353,1.64599 v 3.71677 q 0,1.13273 1.132729,1.13273 0.743353,0 1.168126,-1.15043 0.424773,-1.15043 0.424773,-2.79643 0,-2.35395 -1.327416,-3.85835 -1.309717,-1.52211 -3.876055,-1.52211 -2.54864,0 -4.070744,1.78759 -1.504405,1.78759 -1.504405,4.42472 0,2.61944 1.451309,4.38932 1.469007,1.76989 3.876055,1.76989 1.699093,0 2.814123,-0.67255 l 0.389375,0.61946 q -1.345115,0.84954 -3.203498,0.84954 -3.1681,0 -5.044181,-1.89378 -1.858383,-1.87608 -1.858383,-4.95568 0,-3.07961 1.929178,-5.07958 1.946877,-1.99998 5.132676,-1.99998 3.203498,0 5.026483,1.73449 1.840684,1.71679 1.840684,4.40702 0,2.10617 -0.849547,3.45129 -0.849546,1.32741 -2.424747,1.32741 -1.929178,0 -2.353951,-0.93804 -1.008836,0.86725 -2.123866,0.86725 -2.176963,0 -2.176963,-1.89378 z m 1.469008,-0.14159 q 0,1.27432 0.991137,1.27432 0.778751,0 1.681394,-0.90265 v -1.98227 l -1.168126,0.0885 q -0.690257,0.0531 -1.097331,0.47787 -0.407074,0.42477 -0.407074,1.04424 z"
         style="font-style:normal;font-variant:normal;font-weight:normal;font-stretch:normal;font-family:Caladea;-inkscape-font-specification:Caladea;stroke-width:0.4424721"
         id="path3732" />
      <path
         d="m 78.526532,287.52353 q -3.238896,0 -3.238896,-4.08844 0,-2.17696 1.026535,-3.30969 1.026536,-1.15043 2.973413,-1.15043 0.761052,0 1.504405,0.30088 v -1.91148 q 0,-0.65485 -0.265484,-0.88494 -0.265483,-0.24778 -0.955739,-0.28318 l 0.0354,-0.51327 q 0.601762,-0.10619 2.353951,-0.61946 l 0.353978,0.17699 v 11.0795 q 0.407074,0.31858 1.221223,0.47787 l -0.0531,0.60176 H 80.93358 l -0.141591,-1.04423 q -0.743353,1.16812 -2.265457,1.16812 z m 0.15929,-0.76105 q 2.106167,0 2.106167,-3.32739 v -3.36279 q -0.672558,-0.35397 -1.557502,-0.35397 -1.132728,0 -1.769888,0.97343 -0.619461,0.97344 -0.619461,2.72563 0,1.73449 0.442472,2.54864 0.460171,0.79645 1.398212,0.79645 z"
         style="font-style:normal;font-variant:normal;font-weight:normal;font-stretch:normal;font-family:Caladea;-inkscape-font-specification:Caladea;stroke-width:0.4424721"
         id="path3734" />
      <path
         d="m 85.972234,281.22273 q 0,-0.65486 -0.283182,-0.88494 -0.265484,-0.24779 -0.95574,-0.28318 l 0.0531,-0.51327 q 0.672557,-0.12389 2.336252,-0.61946 l 0.353978,0.19468 v 7.20345 q 0.442472,0.31858 1.238922,0.47787 l -0.0708,0.60176 h -3.911453 l 0.0708,-0.63716 q 0.725655,-0.12389 1.168127,-0.44247 z m 0.654858,-5.43356 q 0.938041,0 0.938041,1.02654 0,1.02653 -0.938041,1.02653 -0.920342,0 -0.920342,-1.02653 0,-1.02654 0.920342,-1.02654 z"
         style="font-style:normal;font-variant:normal;font-weight:normal;font-stretch:normal;font-family:Caladea;-inkscape-font-specification:Caladea;stroke-width:0.4424721"
         id="path3736" />
      <path
         d="m 94.385289,281.57671 q -0.0708,-0.93804 -0.407075,-1.39821 -0.336278,-0.47787 -1.09733,-0.47787 -0.761052,0 -1.168127,0.31858 -0.407074,0.31858 -0.407074,0.86724 0,0.54867 0.460171,0.90265 0.460171,0.35397 1.11503,0.58406 0.654858,0.21239 1.309717,0.47787 0.654859,0.24778 1.11503,0.79645 0.460171,0.53096 0.460171,1.34511 0,1.18583 -0.831848,1.85839 -0.831847,0.65485 -2.336253,0.65485 -0.61946,0 -1.433609,-0.19468 -0.79645,-0.21239 -1.203524,-0.47787 v -2.17697 l 0.938041,-0.12389 q 0.106193,1.29202 0.47787,1.99998 0.566364,0.17699 1.327416,0.17699 0.761052,0 1.221223,-0.38938 0.460171,-0.38938 0.460171,-0.93804 0,-0.56637 -0.460171,-0.90264 -0.442472,-0.33628 -1.097331,-0.53097 -0.63716,-0.21239 -1.292019,-0.46017 -0.654858,-0.26548 -1.115029,-0.81415 -0.442472,-0.56636 -0.442472,-1.5221 0,-0.95574 0.778751,-1.55751 0.796449,-0.60176 2.265457,-0.60176 1.486706,0 2.442446,0.46017 l -0.15929,2.12387 z"
         style="font-style:normal;font-variant:normal;font-weight:normal;font-stretch:normal;font-family:Caladea;-inkscape-font-specification:Caladea;stroke-width:0.4424721"
         id="path3738" />
      <path
         d="m 102.29116,278.97497 q 0.63716,0 1.09733,0.37168 0.47787,0.37168 0.47787,0.93804 0,0.56636 -0.26548,0.90264 -0.24779,0.33628 -0.61947,0.33628 -0.35397,0 -0.61946,-0.14159 -0.26548,-0.15929 -0.33628,-0.40707 0.17699,-0.17699 0.17699,-0.49557 0,-0.53097 -0.49557,-0.53097 -0.49556,0 -1.00883,0.72566 -0.49557,0.70795 -0.49557,1.5221 v 4.10614 q 0.47787,0.31858 1.39821,0.49557 l -0.0708,0.60176 h -4.070747 l 0.0708,-0.63716 q 0.725654,-0.12389 1.168127,-0.46017 v -5.04418 q 0,-0.65486 -0.283183,-0.88494 -0.265483,-0.24779 -0.955739,-0.28319 l 0.0531,-0.51326 q 0.230086,-0.0354 2.159264,-0.60177 l 0.31858,0.15929 0.176987,1.23893 q 0.93804,-1.39822 2.12387,-1.39822 z"
         style="font-style:normal;font-variant:normal;font-weight:normal;font-stretch:normal;font-family:Caladea;-inkscape-font-specification:Caladea;stroke-width:0.4424721"
         id="path3740" />
      <path
         d="m 106.72362,280.60327 q -0.49557,0.79645 -0.49557,2.63713 0,1.84069 0.49557,2.65484 0.51327,0.81415 1.66369,0.81415 1.15043,0 1.6637,-0.81415 0.53096,-0.81415 0.53096,-2.65484 0,-1.84068 -0.51326,-2.63713 -0.51327,-0.81415 -1.6814,-0.81415 -1.15042,0 -1.66369,0.81415 z m -1.15043,5.82293 q -0.93804,-1.09733 -0.93804,-3.1858 0,-2.08846 0.93804,-3.1681 0.95574,-1.09733 2.81412,-1.09733 1.85839,0 2.79643,1.09733 0.95574,1.07964 0.95574,3.1681 0,2.08847 -0.95574,3.1858 -0.93804,1.09733 -2.79643,1.09733 -1.85838,0 -2.81412,-1.09733 z"
         style="font-style:normal;font-variant:normal;font-weight:normal;font-stretch:normal;font-family:Caladea;-inkscape-font-specification:Caladea;stroke-width:0.4424721"
         id="path3742" />
      <path
         d="m 116.12615,280.60327 q -0.49557,0.79645 -0.49557,2.63713 0,1.84069 0.49557,2.65484 0.51327,0.81415 1.6637,0.81415 1.15043,0 1.66369,-0.81415 0.53097,-0.81415 0.53097,-2.65484 0,-1.84068 -0.51327,-2.63713 -0.51327,-0.81415 -1.68139,-0.81415 -1.15043,0 -1.6637,0.81415 z m -1.15042,5.82293 q -0.93805,-1.09733 -0.93805,-3.1858 0,-2.08846 0.93805,-3.1681 0.95573,-1.09733 2.81412,-1.09733 1.85838,0 2.79642,1.09733 0.95574,1.07964 0.95574,3.1681 0,2.08847 -0.95574,3.1858 -0.93804,1.09733 -2.79642,1.09733 -1.85839,0 -2.81412,-1.09733 z"
         style="font-style:normal;font-variant:normal;font-weight:normal;font-stretch:normal;font-family:Caladea;-inkscape-font-specification:Caladea;stroke-width:0.4424721"
         id="path3744" />
      <path
         d="m 128.39591,286.92177 q -0.88495,0.65486 -2.05307,0.65486 -1.15043,0 -1.5752,-0.49557 -0.42478,-0.49557 -0.42478,-1.68139 V 280.09 h -1.43361 v -0.53096 q 1.71679,-0.58407 2.26546,-2.14157 h 0.70795 v 1.71679 h 2.26546 V 280.09 h -2.28315 v 5.43356 q 0,0.65486 0.15929,0.93804 0.17698,0.28318 0.77875,0.28318 0.60176,0 1.23892,-0.35397 z"
         style="font-style:normal;font-variant:normal;font-weight:normal;font-stretch:normal;font-family:Caladea;-inkscape-font-specification:Caladea;stroke-width:0.4424721"
         id="path3746" />
      <path
         d="m 129.62625,286.497 q 0,-1.02654 0.93804,-1.02654 0.93804,0 0.93804,1.02654 0,1.02653 -0.93804,1.02653 -0.93804,0 -0.93804,-1.02653 z"
         style="font-style:normal;font-variant:normal;font-weight:normal;font-stretch:normal;font-family:Caladea;-inkscape-font-specification:Caladea;stroke-width:0.4424721"
         id="path3748" />
      <path
         d="m 135.41517,280.60327 q -0.49557,0.79645 -0.49557,2.63713 0,1.84069 0.49557,2.65484 0.51327,0.81415 1.66369,0.81415 1.15043,0 1.6637,-0.81415 0.53097,-0.81415 0.53097,-2.65484 0,-1.84068 -0.51327,-2.63713 -0.51327,-0.81415 -1.6814,-0.81415 -1.15042,0 -1.66369,0.81415 z m -1.15043,5.82293 q -0.93804,-1.09733 -0.93804,-3.1858 0,-2.08846 0.93804,-3.1681 0.95574,-1.09733 2.81412,-1.09733 1.85839,0 2.79643,1.09733 0.95574,1.07964 0.95574,3.1681 0,2.08847 -0.95574,3.1858 -0.93804,1.09733 -2.79643,1.09733 -1.85838,0 -2.81412,-1.09733 z"
         style="font-style:normal;font-variant:normal;font-weight:normal;font-stretch:normal;font-family:Caladea;-inkscape-font-specification:Caladea;stroke-width:0.4424721"
         id="path3750" />
      <path
         d="m 147.43713,278.97497 q 0.63716,0 1.09733,0.37168 0.47787,0.37168 0.47787,0.93804 0,0.56636 -0.26548,0.90264 -0.24779,0.33628 -0.61946,0.33628 -0.35398,0 -0.61946,-0.14159 -0.26549,-0.15929 -0.33628,-0.40707 0.17699,-0.17699 0.17699,-0.49557 0,-0.53097 -0.49557,-0.53097 -0.49557,0 -1.00884,0.72566 -0.49557,0.70795 -0.49557,1.5221 v 4.10614 q 0.47787,0.31858 1.39821,0.49557 l -0.0708,0.60176 h -4.07074 l 0.0708,-0.63716 q 0.72566,-0.12389 1.16813,-0.46017 v -5.04418 q 0,-0.65486 -0.28318,-0.88494 -0.26549,-0.24779 -0.95574,-0.28319 l 0.0531,-0.51326 q 0.23009,-0.0354 2.15927,-0.60177 l 0.31858,0.15929 0.17699,1.23893 q 0.93804,-1.39822 2.12386,-1.39822 z"
         style="font-style:normal;font-variant:normal;font-weight:normal;font-stretch:normal;font-family:Caladea;-inkscape-font-specification:Caladea;stroke-width:0.4424721"
         id="path3752" />
      <path
         d="m 153.24679,278.99267 q 1.22122,0 1.98227,0.42478 0.63716,-0.19469 0.63716,-0.63716 0,-0.46018 -0.49557,-0.69026 0,-0.26548 0.21239,-0.42477 0.23009,-0.17699 0.61946,-0.17699 0.38938,0 0.63716,0.24778 0.24779,0.24779 0.24779,0.63716 0,1.11503 -1.23893,1.5398 0.65486,0.72566 0.65486,2.03538 0,1.30971 -0.88494,2.08846 -0.86725,0.76106 -2.37165,0.76106 H 152.999 l -0.74335,0.92034 q 0.0354,0.26548 0.26548,0.37167 0.24779,0.1062 0.86725,0.1239 h 0.74335 q 1.6283,0 2.38935,0.74335 0.77875,0.72565 0.77875,1.85838 0,2.46015 -3.75216,2.46015 -1.87608,0 -2.83182,-0.60177 -0.93804,-0.60176 -0.93804,-1.5575 0,-0.95574 0.30088,-1.38051 0.30088,-0.40707 1.06193,-0.83185 -0.38937,-0.44247 -0.38937,-1.18582 l 1.4513,-1.02654 q -1.04423,-0.24778 -1.62829,-0.95574 -0.56637,-0.72565 -0.56637,-1.78758 0,-2.95572 3.2389,-2.95572 z m -1.25662,4.56631 q 0.38937,0.51327 1.25662,0.51327 0.86724,0 1.25662,-0.51327 0.38937,-0.51326 0.38937,-1.66369 0,-1.15043 -0.38937,-1.6637 -0.38938,-0.53096 -1.25662,-0.53096 -0.86725,0 -1.25662,0.53096 -0.38938,0.51327 -0.38938,1.6637 0,1.15043 0.38938,1.66369 z m 1.71679,3.85836 h -1.50441 q -0.79645,0.51327 -0.79645,1.39821 0,1.73449 2.12387,1.73449 2.14157,0 2.14157,-1.73449 0,-1.39821 -1.96458,-1.39821 z"
         style="font-style:normal;font-variant:normal;font-weight:normal;font-stretch:normal;font-family:Caladea;-inkscape-font-specification:Caladea;stroke-width:0.4424721"
         id="path3754" />
    </g>
  </g>
</svg>
